<svg width="336" height="461" viewBox="0 0 336 461" fill="none" xmlns="http://www.w3.org/2000/svg">
<path fill-rule="evenodd" clip-rule="evenodd" d="M52.686 411.629C50.909 411.629 49.447 410.18 49.447 408.39C49.447 406.599 50.909 405.151 52.686 405.151H299.606V386.953H52.686C50.909 386.953 49.447 385.504 49.447 383.712C49.447 381.948 50.909 380.473 52.686 380.473H299.606V362.801H41.243H40.822L40.401 362.827H39.992H39.98L39.571 362.853H39.545L39.15 362.879H39.124L38.729 362.905H38.715L38.32 362.93H38.294L37.912 362.985H37.873L37.49 363.012L37.464 363.037L37.084 363.063H37.058L36.675 363.116H36.635L36.266 363.169L36.227 363.195L35.858 363.248H35.818L35.464 363.327H35.411L35.055 363.379L35.002 363.406L34.66 363.459L34.251 363.564H34.199L33.857 363.642H33.804L33.462 363.721L33.396 363.747L33.068 363.826L33.015 363.852L32.685 363.93L32.606 363.957L32.291 364.035L32.226 364.062L31.908 364.14L31.829 364.166L31.514 364.271L31.435 364.297L31.133 364.402L31.054 364.428L30.75 364.507L30.671 364.532L30.381 364.637L30.288 364.664L29.998 364.768L29.907 364.821L29.617 364.926L29.524 364.952L29.249 365.057L29.156 365.11L28.879 365.215L28.774 365.24L28.511 365.372L28.406 365.398L28.143 365.53L28.038 365.556L27.775 365.687L27.67 365.74L27.407 365.845L27.302 365.898L27.051 366.005L26.946 366.058L26.697 366.189L26.592 366.242L26.341 366.374L26.223 366.427L25.984 366.559L25.866 366.612L25.641 366.743L25.524 366.796L25.287 366.928L25.168 367.007L24.945 367.112L24.825 367.19L24.6 367.323L24.469 367.401L24.258 367.533L24.141 367.586L23.93 367.718L23.799 367.796L23.589 367.929L23.457 368.007L23.259 368.165L23.128 368.244L22.929 368.376L22.798 368.454L22.601 368.586L22.47 368.691L22.272 368.823L22.14 368.903L21.956 369.035L21.824 369.14L21.64 369.272L21.494 369.377L21.324 369.508L21.178 369.613L21.008 369.745L20.862 369.877L20.704 370.008L20.56 370.113L20.388 370.245L20.244 370.377L20.084 370.508L19.94 370.613L19.794 370.745L19.636 370.877L19.492 371.008L19.346 371.141L19.202 371.272L19.044 371.404L18.898 371.536L18.754 371.667L18.62 371.799L18.462 371.933L18.33 372.064L18.186 372.222L18.054 372.354H18.028L17.897 372.512C16.304 374.117 14.868 375.857 13.629 377.751L13.195 378.411L12.985 378.753L12.576 379.438L12.378 379.78L12.193 380.149L11.997 380.491L11.812 380.861L11.628 381.204L11.456 381.572L11.286 381.914V381.94L11.114 382.283V382.309L10.956 382.651L10.784 383.019L10.64 383.388V383.414L10.482 383.782L10.336 384.152L10.192 384.52L10.061 384.916L9.929 385.284L9.798 385.679L9.678 386.075L9.55901 386.443L9.441 386.839L9.336 387.234L9.231 387.63L9.126 388.025L9.033 388.42L8.942 388.816L8.863 389.237L8.784 389.632L8.705 390.028L8.626 390.449L8.56001 390.845L8.507 391.266L8.442 391.687L8.401 392.083L8.348 392.504L8.30901 392.927L8.283 393.348L8.257 393.769L8.217 394.191L8.205 394.612L8.191 395.033L8.179 395.454V395.877V396.299L8.191 396.72L8.205 397.141L8.217 397.562L8.257 397.984L8.283 398.405L8.30901 398.828L8.348 399.249L8.401 399.644V399.67L8.442 400.066L8.507 400.487L8.56001 400.882V400.908L8.626 401.303L8.705 401.699V401.725L8.942 402.911V402.937C9.06 403.463 9.19101 403.991 9.33701 404.517C9.46801 405.044 9.627 405.571 9.798 406.072C11.43 411.076 14.236 415.579 17.896 419.239C21.162 422.505 25.125 425.112 29.523 426.799L29.905 426.931C30.788 427.273 31.695 427.536 32.604 427.799L33.394 428.01L34.198 428.195L34.593 428.273L35.002 428.352L35.411 428.431L36.634 428.616V428.642L37.873 428.775L38.294 428.828L39.124 428.881L39.545 428.907L39.98 428.933H40.822V428.959H41.243H299.606V411.629H52.686ZM208.178 181.394V134.962C208.178 133.171 209.627 131.722 211.417 131.722H223.204C224.981 131.722 226.442 133.171 226.442 134.962V161.983C226.442 164.485 226.059 166.934 225.362 169.252L225.323 169.384C224.572 171.808 223.452 174.072 222.057 176.126C220.885 177.838 219.516 179.392 217.975 180.762C216.552 182.025 214.932 183.158 213.181 184.107C212.681 184.449 212.062 184.632 211.416 184.632C209.628 184.632 208.178 183.185 208.178 181.394ZM214.644 138.2V174.993C215.408 174.229 216.106 173.388 216.725 172.491C217.764 170.964 218.594 169.278 219.147 167.462L219.173 167.409C219.675 165.696 219.964 163.879 219.964 161.983V138.2H214.644V138.2ZM99.619 134.962V181.394C99.593 181.894 99.487 182.421 99.237 182.895C98.408 184.475 96.459 185.081 94.892 184.265C93.022 183.289 91.323 182.105 89.809 180.762C88.283 179.392 86.9 177.838 85.74 176.126C84.331 174.071 83.225 171.808 82.474 169.384C81.751 167.013 81.342 164.538 81.342 161.984V134.963C81.342 133.172 82.803 131.723 84.581 131.723H96.38C98.157 131.722 99.619 133.171 99.619 134.962ZM93.14 174.993V138.2H87.82V161.983C87.82 163.905 88.11 165.749 88.636 167.462C89.203 169.278 90.019 170.964 91.073 172.491C91.678 173.388 92.377 174.23 93.14 174.993ZM145.721 121.793C143.944 121.793 142.482 120.345 142.482 118.554C142.482 116.763 143.944 115.315 145.721 115.315H208.178V109.31L99.618 109.574L99.592 122.399C99.551 124.191 98.078 125.587 96.3 125.56L76.034 125.033C76.113 137.648 76.087 150.291 76.099 162.906C76.125 166.33 76.678 169.595 77.706 172.624C78.773 175.784 80.366 178.707 82.354 181.315C84.275 183.817 86.581 186.029 89.163 187.845C91.704 189.611 94.534 191.006 97.563 191.954C98.775 192.323 99.71 193.403 99.828 194.746C100.328 200.172 101.646 205.386 103.62 210.231L103.687 210.363C105.78 215.421 108.625 220.108 112.075 224.269C115.513 228.43 119.555 232.065 124.032 235.04L124.242 235.145C128.759 238.121 133.737 240.438 139.005 241.939C140.125 242.256 141.032 243.177 141.282 244.389C142.876 251.842 142.362 259.269 140.61 266.407C139.096 272.595 136.686 278.574 133.933 284.237H173.781C170.963 278.549 168.566 272.623 167.078 266.46C165.365 259.349 164.918 251.975 166.537 244.363C166.774 243.23 167.618 242.283 168.803 241.939C174.109 240.412 179.074 238.095 183.551 235.145C188.12 232.169 192.229 228.455 195.719 224.242C199.168 220.081 202 215.392 204.094 210.362C206.109 205.516 207.439 200.302 207.939 194.877C208.005 193.56 208.886 192.348 210.216 191.927C213.245 191.005 216.089 189.582 218.632 187.819C221.214 186.028 223.503 183.816 225.427 181.314C227.429 178.706 229.008 175.756 230.089 172.596C231.115 169.567 231.668 166.301 231.668 162.905V125.559H211.415C209.625 125.559 208.176 124.111 208.176 122.319V121.793H145.721V121.793ZM132.183 115.315C133.961 115.315 135.422 116.763 135.422 118.554C135.422 120.345 133.961 121.793 132.183 121.793H118.858C117.08 121.793 115.619 120.345 115.619 118.554C115.619 116.763 117.08 115.315 118.858 115.315H132.183ZM174.862 293.377C176.654 293.377 178.101 294.825 178.101 296.616C178.101 298.381 176.654 299.855 174.862 299.855H167.212C165.42 299.855 163.973 298.38 163.973 296.616C163.973 294.825 165.421 293.377 167.212 293.377H174.862ZM171.254 161.931C166.816 157.48 160.666 154.741 153.898 154.741C147.116 154.741 140.98 157.48 136.542 161.931C132.104 166.355 129.353 172.492 129.353 179.286C129.353 185.975 132.04 192.059 136.384 196.483L136.542 196.641C140.98 201.066 147.116 203.831 153.898 203.831C160.666 203.831 166.816 201.065 171.254 196.641C175.692 192.217 178.443 186.054 178.443 179.286C178.443 172.57 175.756 166.513 171.412 162.089L171.254 161.931ZM153.899 148.262C162.459 148.262 170.229 151.738 175.837 157.348L176.023 157.559C181.526 163.142 184.923 170.832 184.923 179.287C184.923 187.846 181.446 195.59 175.837 201.199C170.229 206.836 162.459 210.311 153.899 210.311C145.327 210.311 137.571 206.835 131.961 201.225L131.777 201.014C126.272 195.404 122.875 187.741 122.875 179.286C122.875 170.727 126.351 162.983 131.961 157.374C137.57 151.738 145.326 148.262 153.899 148.262ZM126.377 266.54C126.114 268.304 124.468 269.542 122.702 269.278C120.939 269.015 119.714 267.382 119.977 265.618C120.279 263.511 120.425 261.457 120.398 259.455C120.372 258.085 120.252 256.663 120.042 255.241C115.604 253.792 111.43 251.764 107.625 249.262C103.173 246.338 99.183 242.757 95.8 238.674C92.482 234.646 89.717 230.115 87.675 225.19C85.699 220.424 84.395 215.315 83.907 209.967C83.763 208.203 85.067 206.623 86.83 206.465C88.608 206.307 90.175 207.624 90.333 209.389C90.756 214.05 91.9 218.528 93.626 222.715C95.403 227.007 97.839 231.01 100.775 234.567C103.739 238.149 107.241 241.282 111.152 243.838C115.011 246.365 119.25 248.341 123.741 249.632C124.86 249.948 125.769 250.869 126.018 252.081C126.532 254.451 126.795 256.901 126.836 259.35C126.891 261.8 126.719 264.196 126.377 266.54ZM154.518 176.521L153.899 174.598L153.279 176.521C152.858 177.812 151.647 178.734 150.212 178.734H148.184L149.751 179.867C150.897 180.656 151.45 182.157 151.002 183.553L150.37 185.477L151.99 184.291C153.11 183.475 154.636 183.448 155.796 184.291L157.428 185.477L156.796 183.553C156.375 182.238 156.822 180.763 157.981 179.92L159.615 178.734H157.784C156.348 178.839 154.978 177.944 154.518 176.521ZM157.743 165.512L159.943 172.308L167.08 172.281C168.094 172.281 168.963 172.624 169.647 173.203L170.003 173.546C170.411 173.967 170.714 174.494 170.898 175.047C171.149 175.732 171.175 176.522 170.991 177.285C170.781 178.181 170.293 178.971 169.489 179.551L163.669 183.791L165.896 190.559C166.224 191.586 166.119 192.614 165.738 193.483L165.566 193.799C165.251 194.352 164.829 194.826 164.303 195.168L164.04 195.326C163.499 195.641 162.868 195.827 162.234 195.853H161.906C161.09 195.827 160.26 195.562 159.523 194.957L153.899 190.875L148.131 195.089C147.301 195.695 146.38 195.906 145.497 195.854C144.734 195.801 143.997 195.538 143.392 195.089C142.799 194.668 142.311 194.062 142.009 193.324C141.667 192.508 141.6 191.56 141.916 190.558L144.129 183.79L138.347 179.602C137.545 179.022 137.057 178.233 136.82 177.389L136.806 177.31C136.622 176.6 136.648 175.809 136.859 175.124L137.071 174.597C137.32 174.071 137.676 173.597 138.124 173.201L138.478 172.965C139.124 172.517 139.887 172.279 140.717 172.279L147.855 172.306L150.054 165.51C150.37 164.51 150.989 163.773 151.765 163.298L152.095 163.114C152.674 162.85 153.294 162.692 153.899 162.692C154.636 162.692 155.401 162.903 156.059 163.324L156.413 163.587C156.994 164.064 157.467 164.697 157.743 165.512ZM112.221 305.808H195.576V290.691H112.221V293.378H157.058C158.836 293.378 160.297 294.826 160.297 296.617C160.297 298.382 158.836 299.856 157.058 299.856H112.221V305.808V305.808ZM83.935 312.261C82.158 312.261 80.71 310.812 80.71 309.021C80.71 307.257 82.158 305.808 83.935 305.808H105.755V296.696V296.617V296.511V287.451C105.755 285.686 107.205 284.238 108.994 284.238H126.812C126.877 284.001 126.956 283.791 127.061 283.579C130.078 277.627 132.776 271.333 134.343 264.907C135.726 259.218 136.226 253.397 135.305 247.577C130.09 245.891 125.192 243.522 120.714 240.572L120.489 240.413C115.446 237.069 110.917 233.014 107.098 228.378C103.252 223.742 100.079 218.502 97.735 212.839L97.656 212.655C95.694 207.862 94.312 202.752 93.639 197.432C90.73 196.326 87.991 194.877 85.474 193.113C82.328 190.926 79.536 188.267 77.232 185.239C74.809 182.077 72.885 178.522 71.596 174.676C70.331 170.963 69.646 167.012 69.646 162.905L69.567 121.714C69.553 119.95 70.988 118.501 72.78 118.501L93.139 119.027V106.361C93.139 104.57 94.587 103.121 96.378 103.121L211.416 102.857C213.181 102.857 214.629 104.279 214.629 106.071L214.643 118.396V118.475V118.554V118.633V118.738V119.08H234.897C236.674 119.08 238.122 120.556 238.122 122.319C237.636 135.514 238.148 149.632 238.148 162.905C238.148 167.012 237.463 170.964 236.2 174.676C234.897 178.522 232.973 182.076 230.564 185.239C228.247 188.241 225.454 190.9 222.321 193.113C219.805 194.85 217.052 196.326 214.155 197.406C213.471 202.804 212.062 207.968 210.06 212.813C207.717 218.475 204.542 223.715 200.698 228.35C196.826 233.039 192.23 237.173 187.095 240.545C182.605 243.494 177.693 245.864 172.504 247.55C171.542 253.502 171.99 259.322 173.347 264.985C174.875 271.333 177.588 277.575 180.734 283.631C180.839 283.817 180.919 284.027 180.971 284.237H190.794H198.801C200.593 284.237 202.04 285.685 202.04 287.45V305.806H223.847C225.639 305.806 227.088 307.255 227.088 309.019C227.088 310.81 225.639 312.259 223.847 312.259H199.052L198.801 312.285H108.993L108.744 312.259H83.935V312.261ZM37.674 88.425C37.674 89.663 38.478 90.927 39.492 91.349C41.652 92.427 44.154 90.769 44.154 88.425V81.972C44.154 80.735 43.363 79.47 42.336 79.048C40.176 77.97 37.674 79.628 37.674 81.972V88.425V88.425ZM37.674 114.314C37.674 115.552 38.478 116.816 39.492 117.238C41.652 118.318 44.154 116.658 44.154 114.314V107.862C44.154 106.624 43.363 105.359 42.336 104.939C40.176 103.859 37.674 105.517 37.674 107.862V114.314V114.314ZM37.674 140.202C37.674 141.44 38.478 142.704 39.492 143.126C41.652 144.206 44.154 142.546 44.154 140.202V133.75C44.154 132.513 43.363 131.247 42.336 130.827C40.176 129.747 37.674 131.405 37.674 133.75V140.202V140.202ZM37.674 166.092C37.674 167.304 38.478 168.593 39.492 168.989C41.652 170.067 44.154 168.434 44.154 166.092V159.613C44.154 158.402 43.363 157.111 42.336 156.717C40.176 155.637 37.674 157.27 37.674 159.613V166.092V166.092ZM37.674 191.981C37.674 193.193 38.478 194.484 39.492 194.878C41.652 195.958 44.154 194.325 44.154 191.981V185.502C44.154 184.29 43.363 182.999 42.336 182.605C40.176 181.525 37.674 183.158 37.674 185.502V191.981V191.981ZM37.674 217.869C37.674 219.081 38.478 220.372 39.492 220.766C41.652 221.846 44.154 220.213 44.154 217.869V211.39C44.154 210.178 43.363 208.887 42.336 208.493C40.176 207.413 37.674 209.046 37.674 211.39V217.869V217.869ZM37.674 243.759C37.674 244.97 38.478 246.234 39.492 246.655C41.652 247.735 44.154 246.102 44.154 243.759V237.28C44.154 236.043 43.363 234.779 42.336 234.357C40.176 233.304 37.674 234.937 37.674 237.28V243.759V243.759ZM37.674 269.621C37.674 270.859 38.478 272.124 39.492 272.544C41.652 273.624 44.154 271.966 44.154 269.621V263.169C44.154 261.931 43.363 260.667 42.336 260.245C40.176 259.165 37.674 260.825 37.674 263.169V269.621V269.621ZM37.674 295.51C37.674 296.748 38.478 298.013 39.492 298.433C41.652 299.513 44.154 297.855 44.154 295.51V289.058C44.154 287.82 43.363 286.556 42.336 286.134C40.176 285.054 37.674 286.714 37.674 289.058V295.51V295.51ZM37.674 321.4C37.674 322.638 38.478 323.902 39.492 324.324C41.652 325.402 44.154 323.744 44.154 321.4V314.921C44.154 313.71 43.363 312.42 42.336 312.024C40.176 310.946 37.674 312.579 37.674 314.921V321.4V321.4ZM37.674 347.288C37.674 348.5 38.478 349.79 39.492 350.184C41.652 351.264 44.154 349.631 44.154 347.288V340.809C44.154 339.598 43.363 338.307 42.336 337.913C40.176 336.833 37.674 338.466 37.674 340.809V347.288V347.288ZM44.154 56.083C44.154 54.871 43.363 53.581 42.336 53.187C40.176 52.107 37.674 53.74 37.674 56.083V62.562C37.674 63.773 38.478 65.064 39.492 65.458C41.652 66.538 44.154 64.905 44.154 62.562V56.083V56.083ZM250.238 30.826L250.225 30.852V30.877L250.211 30.904V30.929L250.198 30.956L250.185 31.011L250.173 31.036L250.158 31.063L250.145 31.116C249.737 32.459 249.395 33.854 249.105 35.251L249.09 35.356L249.078 35.434L249.052 35.539V35.565L249.037 35.644L248.999 35.828L248.973 35.934L248.947 36.092V36.118L248.868 36.618V36.644L248.79 37.118L248.775 37.171L248.762 37.197L248.748 37.302L248.709 37.618L248.695 37.697V37.723L248.642 38.091L248.63 38.196L248.616 38.275V38.301L248.603 38.406L248.588 38.511L248.576 38.616L248.562 38.694L248.549 38.799V38.826V38.911L248.523 39.016V39.121L248.509 39.2L248.496 39.305V39.384L248.481 39.41L248.469 39.514V39.619L248.455 39.724L248.442 39.829V39.908V39.934L248.427 40.013L248.415 40.117V40.222L248.401 40.328L248.388 40.433V40.486V40.538L248.374 40.643V40.748L248.361 40.827V40.932L248.347 41.037V41.141L248.334 41.246V41.351V41.456L248.32 41.561V41.587V41.666L248.307 41.771V41.876L248.293 41.981V42.06V42.164V42.269L248.281 42.374V42.479V42.584V42.689V42.714L248.266 42.794V42.899V43.003V43.108V43.213V43.265V43.32V43.425L248.253 43.529V43.634V43.739V43.843C248.253 55.958 253.177 66.914 261.105 74.842C269.034 82.769 280.002 87.695 292.103 87.695H292.182H292.275H292.354H292.433H292.512H292.591H292.669H292.761H292.841L292.921 87.668H292.999H293.078H293.157H293.236H293.315H293.406H293.485H293.564H293.643H293.721H293.801L293.879 87.643H293.958H294.037H294.116H294.195H294.273H294.355H294.367L294.671 87.616H294.75H294.828H294.908L294.92 87.591H294.986H295.065H295.144H295.223H295.302L295.38 87.564H295.46H295.485H295.538H295.603L295.682 87.539H295.841H295.92L295.999 87.512H296.037H296.078H296.156H296.221L296.3 87.487H296.379H296.458H296.536L296.589 87.46H296.616H296.682L297.775 87.329H297.854L298.09 87.303L298.17 87.277H298.234H298.248L299.867 87.013H299.881L300.408 86.908H300.421L300.5 86.883H300.578L300.658 86.857H300.736L300.802 86.831H300.882L300.946 86.805C309.532 85.04 317.197 80.774 323.108 74.848C331.036 66.92 335.948 55.964 335.948 43.849C335.948 31.735 331.036 20.779 323.108 12.825C315.18 4.898 304.212 0 292.096 0C279.995 0 269.027 4.898 261.098 12.825C256.151 17.816 252.384 23.952 250.238 30.826ZM259.707 43.732C258.64 42.31 258.93 40.281 260.353 39.202C261.774 38.148 263.803 38.412 264.87 39.834L279.117 58.691L319.979 27.246C321.375 26.166 323.416 26.429 324.497 27.824C325.588 29.246 325.325 31.274 323.916 32.354L280.447 65.802C279.026 66.881 276.997 66.591 275.918 65.169L259.707 43.732ZM147.195 67.777C147.142 69.515 145.707 70.937 143.956 70.937C143.338 70.937 142.745 70.753 142.245 70.437L114.552 56.214L87.569 70.437H87.557C87.057 70.753 86.478 70.937 85.858 70.937C84.066 70.937 82.619 69.462 82.619 67.699V33.249H47.775C36.885 33.249 26.983 37.7 19.818 44.864C12.641 52.053 8.179 61.956 8.179 72.833V374.257L8.218 374.204L8.258 374.151L8.32301 374.046L8.39 373.941L8.469 373.836L8.481 373.811L8.534 373.731L8.613 373.627L8.68 373.522L8.759 373.417L8.82401 373.313L8.903 373.208L8.97 373.103L9.023 373.024L9.049 372.998L9.12801 372.893L9.207 372.788L9.272 372.683L9.313 372.63L9.35201 372.577L9.418 372.473L9.497 372.368L9.576 372.263H9.58801L9.655 372.159L9.734 372.079L9.813 371.974L9.88 371.868L9.959 371.764L10.038 371.659L10.117 371.579L10.169 371.501L10.195 371.475L10.274 371.37L10.353 371.265L10.432 371.161L10.471 371.134L10.511 371.081L10.59 370.976L10.681 370.872L10.76 370.767L10.839 370.688L10.918 370.583L10.997 370.478L11.063 370.4H11.075L11.168 370.295L11.247 370.19L11.326 370.111L11.379 370.032L11.42 370.007L11.499 369.902L11.578 369.823L11.669 369.718L11.695 369.692L11.748 369.613L11.827 369.534L11.92 369.429L11.999 369.351H12.011L12.09 369.246L12.183 369.167L12.262 369.062L12.327 368.983L12.353 368.958L12.432 368.876L12.525 368.772L12.604 368.693L12.656 368.64L12.697 368.587L12.788 368.509L12.867 368.429L12.96 368.324L12.986 368.299L13.051 368.246L13.144 368.141L13.235 368.062L13.314 367.958C15.725 365.561 18.424 363.481 21.359 361.769L21.61 361.611L21.768 361.532C23.137 360.742 24.56 360.031 26.034 359.426L26.351 359.294L26.469 359.241L26.799 359.109L26.917 359.056L27.247 358.925L27.365 358.898L28.604 358.451L28.722 358.398L29.064 358.293L29.171 358.24L29.525 358.135L29.63 358.109L29.999 358.004L30.092 357.978L30.566 357.847L30.935 357.742L31.028 357.716L31.409 357.611L31.488 357.585L31.883 357.48H31.962L32.358 357.375L32.437 357.35L32.832 357.27L32.911 357.245L33.306 357.166H33.385L33.794 357.061H33.859L34.347 356.981L34.768 356.902L34.833 356.877L35.256 356.824L35.309 356.797L35.743 356.744H35.796L36.231 356.691L36.284 356.666L36.731 356.613H36.772L37.231 356.56H37.272L37.719 356.507H37.758L38.234 356.481H38.26L38.734 356.428H38.746L39.234 356.402H39.246H39.734L39.748 356.376H40.234H40.248H40.748L41.248 356.35H299.611V93.64C298.228 93.824 296.807 93.982 295.372 94.087H295.357H295.003L294.91 94.114H294.739H294.714H294.648H294.556H294.463L294.372 94.139H294.278H294.199H294.095H294.068H294.015H293.923H293.831L293.737 94.166H293.659H293.567H293.474H293.421H293.383H293.289H293.198H293.105H293.026H292.935L292.841 94.191H292.775H292.749H292.67H292.565H292.482H292.39H292.297H292.206H292.112C278.219 94.191 265.632 88.554 256.531 79.443C247.432 70.33 241.797 57.767 241.797 43.861V43.73V43.625V43.493V43.389V43.256V43.203V43.15L241.81 43.018V42.914V42.781V42.677V42.545V42.441L241.824 42.31V42.205V42.073V41.968L241.836 41.915V41.862V41.73L241.851 41.625V41.493V41.388L241.864 41.256V41.151L241.878 41.02L241.89 40.915V40.784L241.905 40.679V40.626V40.546L241.919 40.442V40.337L241.932 40.205L241.946 40.1L241.999 39.389V39.363L242.078 38.573L242.091 38.468L242.222 37.309L242.236 37.177L242.263 37.072C242.433 35.781 242.658 34.492 242.921 33.254H147.199V67.703V67.728V67.777H147.195ZM11.351 449.527C9.57401 449.527 8.112 448.08 8.112 446.314C8.112 444.524 9.57401 443.075 11.351 443.075H217.304C219.094 443.075 220.544 444.524 220.544 446.314C220.544 448.08 219.094 449.527 217.304 449.527H11.351ZM131.946 460.01C130.169 460.01 128.721 458.562 128.721 456.771C128.721 454.979 130.169 453.532 131.946 453.532H274.467C276.259 453.532 277.706 454.979 277.706 456.771C277.706 458.562 276.259 460.01 274.467 460.01H131.946ZM289.058 460.01C287.268 460.01 285.819 458.562 285.819 456.771C285.819 454.979 287.268 453.532 289.058 453.532H306.875C308.665 453.532 310.114 454.979 310.114 456.771C310.114 458.562 308.665 460.01 306.875 460.01H289.058ZM3.23901 459.694C1.44901 459.694 0 458.245 0 456.455C0 454.664 1.45001 453.216 3.23901 453.216H70.767C72.557 453.216 74.006 454.664 74.006 456.455C74.006 458.245 72.556 459.694 70.767 459.694H3.23901ZM89.097 29.931V30.01V62.325L113.023 49.735L113.078 49.71L113.117 49.684H113.158L113.17 49.658H113.196L113.21 49.632H113.236H113.262L113.288 49.606H113.314H113.326L113.352 49.58H113.366H113.405L113.419 49.554H113.445H113.457L113.497 49.528H113.51H113.55L113.603 49.502H113.642V49.476H113.683H113.695H113.736L113.841 49.45L113.867 49.424H113.893H113.919L114.01 49.398H114.036H114.062H114.088H114.102H114.128H114.154H114.18H114.192L114.233 49.373H114.245H114.286H114.298H114.324H114.338H114.377H114.391H114.43H114.483H114.524H114.536H114.629H114.67H114.682H114.723H114.776H114.815L114.867 49.398H114.92H114.973H115.014L115.067 49.424H115.079H115.105H115.157L115.198 49.45H115.21H115.251H115.263H115.304L115.316 49.476H115.342H115.395L115.435 49.502H115.447H115.488L115.541 49.528H115.58V49.554H115.633L115.726 49.607H115.765L115.806 49.633H115.818L115.859 49.659H115.898V49.685H115.912H115.938H115.951L115.991 49.711H116.003L116.029 49.736L116.07 49.763L140.721 62.404V30.01V29.931V10.363H89.101V29.931H89.097Z" fill="#FF6584"/>
</svg>
